<svg width="70" height="70" viewBox="0 0 70 70" fill="none" xmlns="http://www.w3.org/2000/svg">
<g clip-path="url(#clip0_7_48)">
<rect width="70" height="70" fill="#0E0F10"/>
<g opacity="0.22" filter="url(#filter0_f_7_48)">
<path d="M48 11H22C14.8203 11 9 16.8203 9 24V42C9 49.1797 14.8203 55 22 55H48C55.1797 55 61 49.1797 61 42V24C61 16.8203 55.1797 11 48 11Z" fill="url(#paint0_linear_7_48)"/>
<path d="M48 11H22C14.8203 11 9 16.8203 9 24V42C9 49.1797 14.8203 55 22 55H48C55.1797 55 61 49.1797 61 42V24C61 16.8203 55.1797 11 48 11Z" fill="white" fill-opacity="0.04"/>
<path d="M23 53L21 62L34 53H23Z" fill="url(#paint1_linear_7_48)"/>
<path d="M36.5 25H21.5C20.1193 25 19 26.1193 19 27.5C19 28.8807 20.1193 30 21.5 30H36.5C37.8807 30 39 28.8807 39 27.5C39 26.1193 37.8807 25 36.5 25Z" fill="white"/>
<path d="M48.5 25H44.5C43.1193 25 42 26.1193 42 27.5C42 28.8807 43.1193 30 44.5 30H48.5C49.8807 30 51 28.8807 51 27.5C51 26.1193 49.8807 25 48.5 25Z" fill="white" fill-opacity="0.5"/>
<path d="M27.5 36H21.5C20.1193 36 19 37.1193 19 38.5C19 39.8807 20.1193 41 21.5 41H27.5C28.8807 41 30 39.8807 30 38.5C30 37.1193 28.8807 36 27.5 36Z" fill="white" fill-opacity="0.5"/>
<path d="M48.5 36H35.5C34.1193 36 33 37.1193 33 38.5C33 39.8807 34.1193 41 35.5 41H48.5C49.8807 41 51 39.8807 51 38.5C51 37.1193 49.8807 36 48.5 36Z" fill="white"/>
</g>
<path d="M48 11H22C14.8203 11 9 16.8203 9 24V42C9 49.1797 14.8203 55 22 55H48C55.1797 55 61 49.1797 61 42V24C61 16.8203 55.1797 11 48 11Z" fill="url(#paint2_linear_7_48)"/>
<path d="M48 11H22C14.8203 11 9 16.8203 9 24V42C9 49.1797 14.8203 55 22 55H48C55.1797 55 61 49.1797 61 42V24C61 16.8203 55.1797 11 48 11Z" fill="white" fill-opacity="0.04"/>
<path d="M23 53L21 62L34 53H23Z" fill="url(#paint3_linear_7_48)"/>
<path d="M36.5 25H21.5C20.1193 25 19 26.1193 19 27.5C19 28.8807 20.1193 30 21.5 30H36.5C37.8807 30 39 28.8807 39 27.5C39 26.1193 37.8807 25 36.5 25Z" fill="white"/>
<path d="M48.5 25H44.5C43.1193 25 42 26.1193 42 27.5C42 28.8807 43.1193 30 44.5 30H48.5C49.8807 30 51 28.8807 51 27.5C51 26.1193 49.8807 25 48.5 25Z" fill="white" fill-opacity="0.5"/>
<path d="M27.5 36H21.5C20.1193 36 19 37.1193 19 38.5C19 39.8807 20.1193 41 21.5 41H27.5C28.8807 41 30 39.8807 30 38.5C30 37.1193 28.8807 36 27.5 36Z" fill="white" fill-opacity="0.5"/>
<path d="M48.5 36H35.5C34.1193 36 33 37.1193 33 38.5C33 39.8807 34.1193 41 35.5 41H48.5C49.8807 41 51 39.8807 51 38.5C51 37.1193 49.8807 36 48.5 36Z" fill="white"/>
</g>
<defs>
<filter id="filter0_f_7_48" x="-22.2" y="-22.2" width="114.4" height="114.4" filterUnits="userSpaceOnUse" color-interpolation-filters="sRGB">
<feFlood flood-opacity="0" result="BackgroundImageFix"/>
<feBlend mode="normal" in="SourceGraphic" in2="BackgroundImageFix" result="shape"/>
<feGaussianBlur stdDeviation="12.6" result="effect1_foregroundBlur_7_48"/>
</filter>
<linearGradient id="paint0_linear_7_48" x1="13" y1="11" x2="57" y2="59" gradientUnits="userSpaceOnUse">
<stop stop-color="#8E7BFF"/>
<stop offset="1" stop-color="#6C5CE7"/>
</linearGradient>
<linearGradient id="paint1_linear_7_48" x1="13" y1="11" x2="57" y2="59" gradientUnits="userSpaceOnUse">
<stop stop-color="#8E7BFF"/>
<stop offset="1" stop-color="#6C5CE7"/>
</linearGradient>
<linearGradient id="paint2_linear_7_48" x1="13" y1="11" x2="57" y2="59" gradientUnits="userSpaceOnUse">
<stop stop-color="#8E7BFF"/>
<stop offset="1" stop-color="#6C5CE7"/>
</linearGradient>
<linearGradient id="paint3_linear_7_48" x1="13" y1="11" x2="57" y2="59" gradientUnits="userSpaceOnUse">
<stop stop-color="#8E7BFF"/>
<stop offset="1" stop-color="#6C5CE7"/>
</linearGradient>
<clipPath id="clip0_7_48">
<rect width="70" height="70" fill="white"/>
</clipPath>
</defs>
</svg>
